<mxfile host="app.diagrams.net" modified="2024-05-05T19:10:00.784Z" agent="Mozilla/5.0 (Windows NT 10.0; Win64; x64) AppleWebKit/537.36 (KHTML, like Gecko) Chrome/123.0.0.0 Safari/537.36 Edg/123.0.0.0" version="24.3.1" etag="rYqjPSzyk8z3TqeLYv0Q" type="github">
  <diagram name="Страница — 1" id="GPHygkDVBCqmsvLALvjp">
    <mxGraphModel>
      <root>
        <mxCell id="0" />
        <mxCell id="1" parent="0" />
      </root>
    </mxGraphModel>
  </diagram>
</mxfile>
